HIERARCHY
ROOT hip
{
	OFFSET 0.000000 0.000000 0.000000 
	CHANNELS 6 Xposition Yposition Zposition Xrotation Zrotation Yrotation
	JOINT abdomen
	{
		OFFSET 0.000000 3.402643 0.000000 
		CHANNELS 3 Xrotation Zrotation Yrotation
		JOINT chest
		{
			OFFSET 0.000000 8.438565 -0.680529 
			CHANNELS 3 Xrotation Zrotation Yrotation
			JOINT neck
			{
				OFFSET 0.000000 10.207942 -0.272212 
				CHANNELS 3 Xrotation Zrotation Yrotation
				JOINT head
				{
					OFFSET 0.000000 3.130431 0.000000 
					CHANNELS 3 Xrotation Zrotation Yrotation
					End Site
					{
						OFFSET 0.000000 3.130435 0.000000 
					}
				}
			}
			JOINT lCollar
			{
				OFFSET 3.470700 6.669187 -0.816635 
				CHANNELS 3 Yrotation Zrotation Xrotation
				JOINT lShldr
				{
					OFFSET 3.198488 0.000000 0.000000 
					CHANNELS 3 Zrotation Yrotation Xrotation
					JOINT lForeArm
					{
						OFFSET 10.139888 0.000000 0.000000 
						CHANNELS 3 Yrotation Zrotation Xrotation
						JOINT lHand
						{
							OFFSET 8.370511 0.000000 0.000000 
							CHANNELS 3 Zrotation Yrotation Xrotation
							End Site
							{
								OFFSET 4.083176 0.000000 0.000000 
							}
						}
					}
				}
			}
			JOINT rCollar
			{
				OFFSET -3.470700 6.669187 -0.816635 
				CHANNELS 3 Yrotation Zrotation Xrotation
				JOINT rShldr
				{
					OFFSET -3.198488 0.000000 0.000000 
					CHANNELS 3 Zrotation Yrotation Xrotation
					JOINT rForeArm
					{
						OFFSET -10.139888 0.000000 0.000000 
						CHANNELS 3 Yrotation Zrotation Xrotation
						JOINT rHand
						{
							OFFSET -8.370511 0.000000 0.000000 
							CHANNELS 3 Zrotation Yrotation Xrotation
							End Site
							{
								OFFSET -4.083176 0.000000 0.000000 
							}
						}
					}
				}
			}
		}
	}
	JOINT lThigh
	{
		OFFSET 5.308129 -1.633274 1.361059 
		CHANNELS 3 Xrotation Zrotation Yrotation
		JOINT lShin
		{
			OFFSET -2.041588 -20.007561 0.000000 
			CHANNELS 3 Xrotation Zrotation Yrotation
			JOINT lFoot
			{
				OFFSET 0.000000 -19.190928 -1.224953 
				CHANNELS 3 Xrotation Yrotation Zrotation
				End Site
				{
					OFFSET 0.000000 -2.449906 4.627600 
				}
			}
		}
	}
	JOINT rThigh
	{
		OFFSET -5.308129 -1.633274 1.361059 
		CHANNELS 3 Xrotation Zrotation Yrotation
		JOINT rShin
		{
			OFFSET 2.041588 -20.007561 0.000000 
			CHANNELS 3 Xrotation Zrotation Yrotation
			JOINT rFoot
			{
				OFFSET 0.000000 -19.190928 -1.224953 
				CHANNELS 3 Xrotation Yrotation Zrotation
				End Site
				{
					OFFSET 0.000000 -2.449906 4.627600 
				}
			}
		}
	}
}
MOTION
Frames: 6
Frame Time: 0.033333
3.117737 38.902184 -16.443630 -52.211479 -4.944899 -2.892014 0.000000 0.000000 0.000000 -25.356543 4.306807 3.829562 -11.135603 -4.290485 -11.301827 -34.293385 6.555395 -20.451422 17.503918 29.996494 -25.000000 27.219360 -14.855344 -71.434601 -34.263290 4.229060 21.437401 6.554510 -14.075979 -4.257398 1.407889 -0.607232 -22.961334 34.597420 -25.553644 23.132931 24.505125 12.783948 41.541348 -18.979996 -3.775745 -3.448392 8.876744 24.209070 5.690988 64.429756 11.440626 14.002414 -10.904474 2.643341 -27.182810 15.320961 -26.454233 -8.276127 62.662094 -12.298894 -1.029301 -18.990358 -4.747511 27.943394 
3.124519 38.910656 -16.377119 -52.061569 -5.023433 -2.774426 0.000000 0.000000 0.000000 -25.312374 3.943484 4.395854 -10.747875 -4.627333 -10.582221 -34.767189 5.552429 -19.518948 17.616041 29.994308 -25.000000 26.363638 -15.436055 -70.914429 -33.835705 4.391030 22.999731 4.297695 -13.746081 -3.894627 3.025199 -0.093195 -22.929573 35.240795 -25.647490 25.931593 26.630211 13.804804 40.773037 -19.328266 -4.404725 -3.354457 8.698947 24.312645 5.600815 64.498100 11.483862 14.093392 -10.961968 2.666646 -27.240450 15.360389 -26.415010 -8.475430 62.623779 -12.201363 -0.987172 -19.037207 -4.766677 27.934076 
3.134376 38.871506 -16.334942 -51.763783 -5.140524 -2.765571 0.000000 0.000000 0.000000 -25.316183 3.639282 4.853795 -10.417440 -4.791656 -9.869428 -35.285511 4.338697 -18.355078 17.667856 29.994926 -25.000000 25.538534 -15.946520 -69.578148 -32.309120 4.343228 21.942863 4.907984 -14.237675 -4.000048 4.543037 0.184561 -22.935633 36.896973 -25.686096 26.276684 28.539635 13.692489 42.342209 -18.877247 -4.557031 -3.337245 8.415782 24.371132 5.356813 64.759743 11.562059 14.144848 -11.192320 2.733236 -27.471642 14.957286 -26.431776 -8.490174 62.797421 -12.035006 -1.011823 -19.020718 -4.733614 27.808176 
3.121892 38.829132 -16.289583 -51.671963 -5.472741 -2.639186 0.000000 0.000000 0.000000 -25.080759 3.403911 5.204676 -10.163019 -4.874140 -9.488325 -35.215279 2.863292 -17.258530 17.143883 29.991816 -25.000000 25.200670 -15.723326 -68.474991 -30.512705 4.207331 21.518538 4.265739 -13.865438 -3.892363 5.925611 0.644861 -22.733765 38.286522 -25.031134 26.745058 30.021824 13.786705 43.221619 -19.133137 -4.544179 -3.326767 8.171421 24.771027 5.248549 64.915688 11.679279 14.397315 -11.060183 2.739149 -27.653723 14.948254 -26.109390 -8.409054 62.893639 -11.955714 -0.905880 -19.214550 -4.794358 27.839762 
3.110316 38.795208 -16.262428 -51.540985 -5.872474 -2.690705 0.000000 0.000000 0.000000 -24.827057 3.168513 5.584893 -9.682172 -4.988863 -8.862352 -35.733097 2.023350 -16.426525 16.388433 29.996529 -25.000000 23.973600 -14.713509 -67.079048 -29.468113 3.960569 21.079424 4.679744 -14.505724 -3.980540 7.468255 1.207512 -22.501255 39.523045 -24.306992 26.897209 31.292082 13.579515 44.816879 -18.879595 -4.526242 -3.337639 8.023665 24.962385 5.163957 65.114143 11.884190 14.962482 -10.921885 2.732309 -28.002499 14.821506 -25.719551 -8.093197 63.022224 -11.868896 -0.836292 -19.440639 -4.854692 27.861870 
3.086588 38.772137 -16.216822 -51.430012 -6.194919 -2.583912 0.000000 0.000000 0.000000 -24.557192 2.875409 5.886665 -9.156135 -5.113395 -8.207225 -36.404015 1.092235 -15.383580 17.327213 29.641663 -25.000000 23.078867 -15.466292 -66.587463 -27.507343 4.151932 21.697063 4.438672 -14.491935 -3.926959 8.828759 1.454898 -22.250200 40.815277 -23.105333 27.617937 32.268002 13.974861 44.401825 -19.291893 -4.794193 -3.291041 7.947349 25.211372 4.927114 65.321327 12.079402 15.006392 -11.146474 2.829050 -28.327309 14.656733 -25.292559 -8.115764 63.350552 -11.741377 -1.614567 -19.336977 -4.846625 27.915442 
